<svg xmlns="http://www.w3.org/2000/svg" width="13" fill="grey" height="13" viewBox="0 0 13 13"><path d="M9.04 7.816l3.08 3.096-1.21 1.212L7.83 9.04c-.86.583-1.83.905-2.85.905-1.37 0-2.54-.485-3.51-1.456C.5 7.516.01 6.347.01 4.98c0-1.368.49-2.538 1.46-3.51C2.44.5 3.61.015 4.98.015 6.35.014 7.52.5 8.49 1.47c.97.972 1.46 2.142 1.46 3.51 0 1.028-.33 1.994-.91 2.836zM7.5 7.504c.65-.643.94-1.61.94-2.524 0-.915-.29-1.82-.94-2.468-.64-.648-1.61-1.003-2.52-1.003-.91 0-1.85.323-2.5.97-.65.648-.97 1.585-.97 2.5s.32 1.88.97 2.524c.65.644 1.59.997 2.5.997.91 0 1.88-.352 2.52-.996z"/></svg>