<svg xmlns="http://www.w3.org/2000/svg" width="16" height="11" viewBox="0 0 16 11"><path d="M15.001 1.3c-.515.22-1.069.37-1.65.44A2.796 2.796 0 0 0 14.614.2a5.98 5.98 0 0 1-1.824.68A2.918 2.918 0 0 0 10.693 0C9.107 0 7.82 1.24 7.82 2.78c0 .21.026.43.075.63-2.388-.12-4.504-1.22-5.921-2.9-.247.41-.389.89-.389 1.39 0 .97.507 1.82 1.278 2.32a2.985 2.985 0 0 1-1.301-.35v.03c0 1.35.99 2.47 2.304 2.73-.241.06-.495.09-.757.09-.185 0-.365-.01-.54-.05.365 1.11 1.426 1.91 2.683 1.93a5.86 5.86 0 0 1-3.568 1.19c-.231 0-.46-.01-.685-.04A8.318 8.318 0 0 0 5.403 11c5.283 0 8.173-4.23 8.173-7.9 0-.12-.003-.24-.009-.36a5.656 5.656 0 0 0 1.434-1.44"/></svg>